<svg xmlns="http://www.w3.org/2000/svg" version="1" viewBox="0 0 100 100" id="Flower">
  <path fill="#3ce8c6" stroke="#349d88" stroke-linecap="round" stroke-linejoin="round" stroke-miterlimit="10" stroke-width="1.5" d="M77.5 35.001c0-2.07 2.797-3.752 6.248-3.752.635 0 1.248.059 1.824.166 2.744-3.242 3.578-7.011 1.799-8.789-1.777-1.777-5.545-.944-8.787 1.798.107.579.166 1.189.166 1.824 0 3.45-1.68 6.25-3.748 6.251A2.504 2.504 0 0 1 77.5 35v.001z" class="colore84b3c svgShape colorStroke503b2d svgStroke"></path>
  <path fill="#3ce8c6" stroke="#349d88" stroke-linecap="round" stroke-linejoin="round" stroke-miterlimit="10" stroke-width="1.5" d="M85.572 38.587c-.576.105-1.189.162-1.824.162-3.451 0-6.248-1.678-6.248-3.748V35c0 1.38-1.121 2.5-2.502 2.5 2.07 0 3.752 2.801 3.752 6.248 0 .638-.059 1.249-.166 1.828 3.242 2.744 7.01 3.577 8.789 1.798 1.779-1.778.943-5.546-1.801-8.787zM74.998 37.5a2.497 2.497 0 0 1-2.498-2.498c-.004 2.07-2.801 3.748-6.252 3.748-.635 0-1.248-.057-1.824-.162-2.744 3.239-3.576 7.009-1.799 8.786 1.779 1.779 5.549.946 8.787-1.798a10.24 10.24 0 0 1-.162-1.828c0-3.448 1.678-6.248 3.748-6.248zM71.25 26.249c0-.635.057-1.245.162-1.824-3.238-2.742-7.01-3.576-8.787-1.798-1.779 1.778-.945 5.547 1.797 8.789a10.048 10.048 0 0 1 1.826-.166c3.451 0 6.248 1.678 6.25 3.748a2.502 2.502 0 0 1 2.5-2.497c-2.07-.002-3.748-2.802-3.748-6.252z" class="colore84b3c svgShape colorStroke503b2d svgStroke"></path>
  <path fill="#0bfdcd" stroke="#349d88" stroke-linecap="round" stroke-linejoin="round" stroke-miterlimit="10" stroke-width="1.5" d="M42.418 33.978c-2.999.135-6.036-1.157-8.342-3.893-.028-.003-.056-.012-.083-.016a3.995 3.995 0 0 1-3.924 3.926c.003.027.01.055.014.083 2.735 2.305 4.025 5.34 3.893 8.339 3.073 3.26 7.662 5.055 13 4.552.5-5.333-1.295-9.922-4.558-12.991zM26.025 17.583c-3.073-3.259-7.66-5.05-12.995-4.551-.501 5.334 1.292 9.922 4.553 12.995 3.001-.134 6.034 1.158 8.343 3.89.027.003.054.01.083.014a3.992 3.992 0 0 1 3.925-3.922c-.001-.027-.01-.055-.014-.083-2.737-2.309-4.028-5.343-3.895-8.343z" class="colorfdcd0b svgShape colorStroke503b2d svgStroke"></path>
  <circle cx="30" cy="30.001" r="3.999" fill="none" stroke="#349d88" stroke-linecap="round" stroke-linejoin="round" stroke-miterlimit="10" stroke-width="1.5" class="colorStroke503b2d svgStroke"></circle>
  <circle cx="30" cy="30.001" r="3.999" fill="#eff3f2" stroke="#349d88" stroke-linecap="round" stroke-linejoin="round" stroke-miterlimit="10" stroke-width="1.5" class="coloreff2f3 svgShape colorStroke503b2d svgStroke"></circle>
  <path fill="#ced4d3" d="M30.002 26.001c-.44 0-.856.089-1.251.22a3.985 3.985 0 0 1 2.746 3.78 3.988 3.988 0 0 1-2.746 3.782c.395.131.811.22 1.251.22a3.999 3.999 0 0 0 3.996-4.001 3.998 3.998 0 0 0-3.996-4.001z" class="colorced2d4 svgShape"></path>
  <path fill="#3ce8c6" stroke="#349d88" stroke-linecap="round" stroke-linejoin="round" stroke-miterlimit="10" stroke-width="1.5" d="M30.002 26.001C35.333 21.583 35.333 14.42 30 10c-5.333 4.42-5.333 11.583.002 16.001zm0 23.999c5.331-4.42 5.331-11.581-.002-15.998-5.333 4.417-5.333 11.579.002 15.998zm-4.001-20.001c-4.419-5.33-11.581-5.33-16.001.003 4.418 5.333 11.581 5.333 16.001-.003zm24 0c-4.417-5.33-11.581-5.33-16.001.003 4.42 5.333 11.582 5.333 16.001-.003z" class="colore84b3c svgShape colorStroke503b2d svgStroke"></path>
  <path fill="#33c9ab" d="M30 10c-.461.382-.868.792-1.25 1.212 3.646 4.013 3.646 9.565.001 13.577.383.42.789.829 1.251 1.211 5.331-4.417 5.331-11.58-.002-16zm0 24.002c-.461.383-.868.791-1.25 1.211 3.646 4.011 3.646 9.562.001 13.575.383.42.789.829 1.251 1.212 5.331-4.419 5.331-11.581-.002-15.998zm-13.248-7.908c2.465.328 4.857 1.625 6.748 3.905-1.892 2.284-4.286 3.583-6.751 3.912 3.297.44 6.723-.858 9.252-3.912-2.527-3.049-5.953-4.345-9.249-3.905zm24 0c2.466.328 4.859 1.625 6.749 3.905-1.892 2.284-4.286 3.583-6.752 3.912 3.297.44 6.723-.858 9.252-3.912-2.527-3.049-5.951-4.345-9.249-3.905z" class="colorc94033 svgShape"></path>
  <path fill="#0bfdcd" stroke="#349d88" stroke-linecap="round" stroke-linejoin="round" stroke-miterlimit="10" stroke-width="1.5" d="M26.008 30.068c-.029.003-.056.012-.085.016-2.307 2.737-5.34 4.029-8.341 3.895-3.261 3.073-5.054 7.658-4.553 12.994 5.335.5 9.924-1.292 12.995-4.555-.134-2.999 1.158-6.031 3.892-8.339.003-.028.01-.056.016-.083a3.994 3.994 0 0 1-3.924-3.928zm16.41-4.041c3.263-3.073 5.054-7.662 4.553-12.998-5.335-.5-9.922 1.295-12.995 4.556.133 3-1.157 6.034-3.891 8.342-.004.027-.013.053-.014.081a3.993 3.993 0 0 1 3.922 3.926c.027-.003.055-.01.083-.014 2.306-2.735 5.343-4.025 8.342-3.893z" class="colorfdcd0b svgShape colorStroke503b2d svgStroke"></path>
  <circle cx="74.999" cy="35" r="2.501" fill="#eff3f2" stroke="#349d88" stroke-linecap="round" stroke-linejoin="round" stroke-miterlimit="10" stroke-width="1.5" class="coloreff2f3 svgShape colorStroke503b2d svgStroke"></circle>
  <path fill="#ced4d3" d="M74.998 32.5c-.457 0-.881.132-1.25.347a2.49 2.49 0 0 1 1.25 2.152c0 .923-.506 1.72-1.25 2.152.369.216.793.348 1.25.348 1.381 0 2.502-1.12 2.502-2.5S76.379 32.5 74.998 32.5z" class="colorced2d4 svgShape"></path>
  <path fill="#33c9ab" d="M71.25 26.249c0-.635.057-1.245.162-1.824a13.823 13.823 0 0 0-2.215-1.534 12.467 12.467 0 0 0-.447 3.358c0 2.324.588 4.375 1.57 5.91 1.025.529 1.764 1.253 2.049 2.078.072.045.145.091.221.133a2.493 2.493 0 0 1 2.408-1.869c-2.07-.002-3.748-2.802-3.748-6.252z" class="colorc94033 svgShape"></path>
  <path fill="#0bfdcd" stroke="#349d88" stroke-linecap="round" stroke-linejoin="round" stroke-miterlimit="10" stroke-width="1.5" d="M78.75 26.249c0 3.452-1.682 6.251-3.752 6.251s-3.748-2.799-3.748-6.251c0-3.45 1.678-6.248 3.748-6.248s3.752 2.798 3.752 6.248z" class="colorfdcd0b svgShape colorStroke503b2d svgStroke"></path>
  <path fill="#33c9ab" d="M79.68 37.843c-1.027-.53-1.766-1.255-2.051-2.08-.074-.045-.145-.092-.221-.133a2.492 2.492 0 0 1-2.41 1.869c2.07 0 3.752 2.801 3.752 6.248 0 .638-.059 1.249-.166 1.828a13.73 13.73 0 0 0 2.219 1.535c.287-1.024.447-2.155.447-3.359 0-2.323-.588-4.374-1.57-5.908z" class="colorc94033 svgShape"></path>
  <path fill="#0bfdcd" stroke="#349d88" stroke-linecap="round" stroke-linejoin="round" stroke-miterlimit="10" stroke-width="1.5" d="M71.25 43.751c0-3.451 1.678-6.252 3.748-6.252s3.752 2.801 3.752 6.252C78.75 47.2 77.068 50 74.998 50s-3.748-2.8-3.748-6.249z" class="colorfdcd0b svgShape colorStroke503b2d svgStroke"></path>
  <path fill="#0edab1" d="M74.998 20.001c-.438 0-.859.132-1.25.363 1.455.859 2.502 3.166 2.502 5.884 0 2.72-1.047 5.028-2.502 5.888.391.23.813.363 1.25.363 2.07 0 3.752-2.799 3.752-6.251 0-3.449-1.682-6.247-3.752-6.247zm0 17.499c-.438 0-.859.132-1.25.363 1.455.859 2.502 3.168 2.502 5.889 0 2.717-1.047 5.026-2.502 5.886.391.23.813.363 1.25.363 2.07 0 3.752-2.801 3.752-6.249 0-3.452-1.682-6.252-3.752-6.252z" class="colordab20e svgShape"></path>
  <path fill="#33c9ab" d="M74.369 37.41a2.491 2.491 0 0 1-1.869-2.408c-.004 2.07-2.801 3.748-6.252 3.748-.635 0-1.248-.057-1.824-.162a13.919 13.919 0 0 0-1.537 2.216 12.49 12.49 0 0 0 3.361.446c2.322 0 4.373-.588 5.908-1.569.531-1.027 1.256-1.768 2.082-2.052.045-.073.09-.145.131-.219z" class="colorc94033 svgShape"></path>
  <path fill="#0bfdcd" stroke="#349d88" stroke-linecap="round" stroke-linejoin="round" stroke-miterlimit="10" stroke-width="1.5" d="M66.248 31.25c3.451 0 6.252 1.682 6.252 3.752s-2.801 3.748-6.252 3.748c-3.449 0-6.25-1.678-6.25-3.748s2.801-3.752 6.25-3.752z" class="colorfdcd0b svgShape colorStroke503b2d svgStroke"></path>
  <path fill="#33c9ab" d="M83.748 28.75c-2.322 0-4.373.588-5.906 1.572-.531 1.025-1.254 1.763-2.078 2.048-.045.073-.092.146-.133.221A2.495 2.495 0 0 1 77.5 35v.002c0-2.07 2.797-3.752 6.248-3.752.635 0 1.248.059 1.824.166a13.847 13.847 0 0 0 1.537-2.218 12.438 12.438 0 0 0-3.361-.448z" class="colorc94033 svgShape"></path>
  <path fill="#0bfdcd" stroke="#349d88" stroke-linecap="round" stroke-linejoin="round" stroke-miterlimit="10" stroke-width="1.5" d="M83.748 38.75c-3.451 0-6.248-1.678-6.248-3.748s2.797-3.752 6.248-3.752c3.453 0 6.252 1.682 6.252 3.752s-2.799 3.748-6.252 3.748z" class="colorfdcd0b svgShape colorStroke503b2d svgStroke"></path>
  <path fill="#0edab1" d="M66.248 31.25c-.428 0-.846.026-1.25.076C67.85 31.673 70 33.188 70 35.001s-2.15 3.325-5.002 3.673c.404.05.822.075 1.25.075 3.451 0 6.252-1.678 6.252-3.748s-2.801-3.751-6.252-3.751zm17.5 0c-.428 0-.846.026-1.25.076 2.854.348 5.002 1.862 5.002 3.676s-2.148 3.325-5.002 3.673c.404.05.822.075 1.25.075 3.453 0 6.252-1.678 6.252-3.748s-2.799-3.752-6.252-3.752z" class="colordab20e svgShape"></path>
  <path fill="none" stroke="#349d88" stroke-linecap="round" stroke-linejoin="round" stroke-miterlimit="10" stroke-width="1.5" d="M64.795 90h0c0-16.803-6.809-32.01-17.82-43.024C57.986 57.99 64.795 73.197 64.795 90h0z" class="colorStroke503b2d svgStroke"></path>
  <path fill="none" stroke="#349d88" stroke-linecap="round" stroke-linejoin="round" stroke-miterlimit="10" stroke-width="1.5" d="M62.625 47.375h0C50.854 59.146 44.968 74.572 44.968 90c0-15.428 5.886-30.854 17.657-42.625h0zM77.5 35.001c0-2.07 2.797-3.752 6.248-3.752.635 0 1.248.059 1.824.166 2.744-3.242 3.578-7.011 1.799-8.789-1.777-1.777-5.545-.944-8.787 1.798.107.579.166 1.189.166 1.824 0 3.45-1.68 6.25-3.748 6.251A2.504 2.504 0 0 1 77.5 35v.001z" class="colorStroke503b2d svgStroke"></path>
  <path fill="none" stroke="#349d88" stroke-linecap="round" stroke-linejoin="round" stroke-miterlimit="10" stroke-width="1.5" d="M85.572 38.587c-.576.105-1.189.162-1.824.162-3.451 0-6.248-1.678-6.248-3.748V35c0 1.38-1.121 2.5-2.502 2.5 2.07 0 3.752 2.801 3.752 6.248 0 .638-.059 1.249-.166 1.828 3.242 2.744 7.01 3.577 8.789 1.798 1.779-1.778.943-5.546-1.801-8.787zM74.998 37.5a2.497 2.497 0 0 1-2.498-2.498c-.004 2.07-2.801 3.748-6.252 3.748-.635 0-1.248-.057-1.824-.162-2.744 3.239-3.576 7.009-1.799 8.786 1.779 1.779 5.549.946 8.787-1.798a10.24 10.24 0 0 1-.162-1.828c0-3.448 1.678-6.248 3.748-6.248zM71.25 26.249c0-.635.057-1.245.162-1.824-3.238-2.742-7.01-3.576-8.787-1.798-1.779 1.778-.945 5.547 1.797 8.789a10.048 10.048 0 0 1 1.826-.166c3.451 0 6.248 1.678 6.25 3.748a2.502 2.502 0 0 1 2.5-2.497c-2.07-.002-3.748-2.802-3.748-6.252z" class="colorStroke503b2d svgStroke"></path>
  <circle cx="74.999" cy="35" r="2.501" fill="none" stroke="#349d88" stroke-linecap="round" stroke-linejoin="round" stroke-miterlimit="10" stroke-width="1.5" class="colorStroke503b2d svgStroke"></circle>
  <path fill="none" stroke="#349d88" stroke-linecap="round" stroke-linejoin="round" stroke-miterlimit="10" stroke-width="1.5" d="M78.75 26.249c0 3.452-1.682 6.251-3.752 6.251s-3.748-2.799-3.748-6.251c0-3.45 1.678-6.248 3.748-6.248s3.752 2.798 3.752 6.248zm-7.5 17.502c0-3.451 1.678-6.252 3.748-6.252s3.752 2.801 3.752 6.252C78.75 47.2 77.068 50 74.998 50s-3.748-2.8-3.748-6.249zM66.248 31.25c3.451 0 6.252 1.682 6.252 3.752s-2.801 3.748-6.252 3.748c-3.449 0-6.25-1.678-6.25-3.748s2.801-3.752 6.25-3.752zm17.5 7.5c-3.451 0-6.248-1.678-6.248-3.748s2.797-3.752 6.248-3.752c3.453 0 6.252 1.682 6.252 3.752s-2.799 3.748-6.252 3.748z" class="colorStroke503b2d svgStroke"></path>
  <path fill="#0edab1" d="M32.613 33.008a3.959 3.959 0 0 1-2.543.987c.003.027.01.055.014.083 2.735 2.305 4.025 5.34 3.893 8.339a14.31 14.31 0 0 0 2.275 1.947 12.11 12.11 0 0 0 .249-2.367c-.001-3.348-1.376-6.493-3.888-8.989zm-6.605-2.94c-.029.003-.056.012-.085.016-2.307 2.737-5.34 4.029-8.341 3.895a14.245 14.245 0 0 0-1.946 2.274c.772.154 1.56.249 2.361.249h.002c3.349 0 6.496-1.375 8.994-3.889a3.963 3.963 0 0 1-.985-2.545zm15.995-6.566c-3.351 0-6.497 1.374-8.997 3.888.557.641.908 1.454.967 2.355.004.063.02.124.021.188.027-.003.055-.01.083-.014 2.306-2.735 5.343-4.025 8.342-3.893a14.213 14.213 0 0 0 1.948-2.275 12.088 12.088 0 0 0-2.364-.249zm-12.077 2.507.007-.001c-.001-.027-.01-.055-.014-.083-2.736-2.308-4.027-5.342-3.895-8.342a14.296 14.296 0 0 0-2.274-1.946 12.09 12.09 0 0 0-.249 2.365c0 3.35 1.375 6.495 3.888 8.992a3.972 3.972 0 0 1 2.537-.985z" class="colordab20e svgShape"></path>
  <path fill="none" stroke="#349d88" stroke-linecap="round" stroke-linejoin="round" stroke-miterlimit="10" stroke-width="1.5" d="M42.418 33.978c-2.999.135-6.036-1.157-8.342-3.893-.028-.003-.056-.012-.083-.016a3.995 3.995 0 0 1-3.924 3.926c.003.027.01.055.014.083 2.735 2.305 4.025 5.34 3.893 8.339 3.073 3.26 7.662 5.055 13 4.552.5-5.333-1.295-9.922-4.558-12.991zM26.025 17.583c-3.073-3.259-7.66-5.05-12.995-4.551-.501 5.334 1.292 9.922 4.553 12.995 3.001-.134 6.034 1.158 8.343 3.89.027.003.054.01.083.014a3.992 3.992 0 0 1 3.925-3.922c-.001-.027-.01-.055-.014-.083-2.737-2.309-4.028-5.343-3.895-8.343z" class="colorStroke503b2d svgStroke"></path>
  <circle cx="30" cy="30.001" r="3.999" fill="none" stroke="#349d88" stroke-linecap="round" stroke-linejoin="round" stroke-miterlimit="10" stroke-width="1.5" class="colorStroke503b2d svgStroke"></circle>
  <path fill="none" stroke="#349d88" stroke-linecap="round" stroke-linejoin="round" stroke-miterlimit="10" stroke-width="1.5" d="M30.002 26.001C35.333 21.583 35.333 14.42 30 10c-5.333 4.42-5.333 11.583.002 16.001zm0 23.999c5.331-4.42 5.331-11.581-.002-15.998-5.333 4.417-5.333 11.579.002 15.998zm-4.001-20.001c-4.419-5.33-11.581-5.33-16.001.003 4.418 5.333 11.581 5.333 16.001-.003zm24 0c-4.417-5.33-11.581-5.33-16.001.003 4.42 5.333 11.582 5.333 16.001-.003z" class="colorStroke503b2d svgStroke"></path>
  <path fill="none" stroke="#349d88" stroke-linecap="round" stroke-linejoin="round" stroke-miterlimit="10" stroke-width="1.5" d="M26.008 30.068c-.029.003-.056.012-.085.016-2.307 2.737-5.34 4.029-8.341 3.895-3.261 3.073-5.054 7.658-4.553 12.994 5.335.5 9.924-1.292 12.995-4.555-.134-2.999 1.158-6.031 3.892-8.339.003-.028.01-.056.016-.083a3.994 3.994 0 0 1-3.924-3.928zm16.41-4.041c3.263-3.073 5.054-7.662 4.553-12.998-5.335-.5-9.922 1.295-12.995 4.556.133 3-1.157 6.034-3.891 8.342-.004.027-.013.053-.014.081a3.993 3.993 0 0 1 3.922 3.926c.027-.003.055-.01.083-.014 2.306-2.735 5.343-4.025 8.342-3.893z" class="colorStroke503b2d svgStroke"></path>
</svg>
